<svg version="1.1" xmlns="http://www.w3.org/2000/svg" xmlns:xlink="http://www.w3.org/1999/xlink" width="1673.99853515625" height="1101"><defs/><g><g transform="translate(-126,-38) scale(1,1)"><rect fill="#C0C0C0" stroke="none" x="143" y="751" width="860.296875" height="280" opacity="0.2"/></g><g transform="translate(-126,-38) scale(1,1)"><rect fill="#ffffff" stroke="none" x="136" y="744" width="860.296875" height="280"/></g><g transform="translate(-126,-38) scale(1,1)"><path fill="none" stroke="#000000" d="M 136 744 L 996.296875 744 L 996.296875 1024 L 136 1024 L 136 744 Z Z" stroke-miterlimit="10"/></g><g transform="translate(-126,-38) scale(1,1)"><path fill="none" stroke="#000000" d="M 136 769 L 996.296875 769" stroke-miterlimit="10"/></g><g transform="translate(-126,-38) scale(1,1)"><path fill="none" stroke="#000000" d="M 136 942 L 996.296875 942" stroke-miterlimit="10"/></g><g transform="translate(-126,-38) scale(1,1)"><g><path fill="none" stroke="none"/><text fill="#000000" stroke="none" font-family="Arial" font-size="13px" font-style="normal" font-weight="bold" text-decoration="none" x="537.00634765625" y="762">DateTime</text></g></g><g transform="translate(-126,-38) scale(1,1)"><g><path fill="none" stroke="none"/><text fill="#000000" stroke="none" font-family="Arial" font-size="13px" font-style="normal" font-weight="normal" text-decoration="none" x="141" y="785">-year: Counter</text></g></g><g transform="translate(-126,-38) scale(1,1)"><g><path fill="none" stroke="none"/><text fill="#000000" stroke="none" font-family="Arial" font-size="13px" font-style="normal" font-weight="normal" text-decoration="none" x="141" y="800">-month: OffsetCounter</text></g></g><g transform="translate(-126,-38) scale(1,1)"><g><path fill="none" stroke="none"/><text fill="#000000" stroke="none" font-family="Arial" font-size="13px" font-style="normal" font-weight="normal" text-decoration="none" x="141" y="815">-day: OffsetCounter</text></g></g><g transform="translate(-126,-38) scale(1,1)"><g><path fill="none" stroke="none"/><text fill="#000000" stroke="none" font-family="Arial" font-size="13px" font-style="normal" font-weight="normal" text-decoration="none" x="141" y="830">-hour: ModuloCounter</text></g></g><g transform="translate(-126,-38) scale(1,1)"><g><path fill="none" stroke="none"/><text fill="#000000" stroke="none" font-family="Arial" font-size="13px" font-style="normal" font-weight="normal" text-decoration="none" x="141" y="845">-minute: ModuloCounter</text></g></g><g transform="translate(-126,-38) scale(1,1)"><g><path fill="none" stroke="none"/><text fill="#000000" stroke="none" font-family="Arial" font-size="13px" font-style="normal" font-weight="normal" text-decoration="none" x="141" y="860">-second: ModuloCounter</text></g></g><g transform="translate(-126,-38) scale(1,1)"><g><path fill="none" stroke="none"/><text fill="#000000" stroke="none" font-family="Arial" font-size="13px" font-style="normal" font-weight="normal" text-decoration="none" x="141" y="875">-updateDaysCounter: uint32_t</text></g></g><g transform="translate(-126,-38) scale(1,1)"><g><path fill="none" stroke="none"/><text fill="#000000" stroke="none" font-family="Arial" font-size="13px" font-style="normal" font-weight="normal" text-decoration="none" x="141" y="890">-hmi: HMI&amp;</text><path fill="none" stroke="#000000" d="M 141 891.5 L 206 891.5" stroke-miterlimit="10"/></g></g><g transform="translate(-126,-38) scale(1,1)"><g><path fill="none" stroke="none"/><text fill="#000000" stroke="none" font-family="Arial" font-size="13px" font-style="normal" font-weight="normal" text-decoration="none" x="141" y="905">-SECONDS_FOR_SMALLEST_MONTH: uint32_t = 2419200 {readOnly}</text><path fill="none" stroke="#000000" d="M 141 906.5 L 558.27587890625 906.5" stroke-miterlimit="10"/></g></g><g transform="translate(-126,-38) scale(1,1)"><g><path fill="none" stroke="none"/><text fill="#000000" stroke="none" font-family="Arial" font-size="13px" font-style="normal" font-weight="normal" text-decoration="none" x="141" y="920">-LEAP_YEAR_ARRAY: int[12] =  {31, 29, 31, 30, 31, 30, 31, 31, 30, 31, 30, 31} {readOnly}</text><path fill="none" stroke="#000000" d="M 141 921.5 L 659.3115234375 921.5" stroke-miterlimit="10"/></g></g><g transform="translate(-126,-38) scale(1,1)"><g><path fill="none" stroke="none"/><text fill="#000000" stroke="none" font-family="Arial" font-size="13px" font-style="normal" font-weight="normal" text-decoration="none" x="141" y="935">-NO_LEAP_YEAR_ARRAY: int[12] = {31, 28, 31, 30, 31, 30, 31, 31, 30, 31, 30, 31} {readOnly}</text><path fill="none" stroke="#000000" d="M 141 936.5 L 682.4296875 936.5" stroke-miterlimit="10"/></g></g><g transform="translate(-126,-38) scale(1,1)"><g><path fill="none" stroke="none"/><text fill="#000000" stroke="none" font-family="Arial" font-size="13px" font-style="normal" font-weight="normal" text-decoration="none" x="141" y="958">«exlicit constructor»+DateTime(startSecond: int = 0, startMinute: int = 0, startHour: int = 0, startDay: int = 1, startMonth: int = 1, startYear: int = 2000)</text></g></g><g transform="translate(-126,-38) scale(1,1)"><g><path fill="none" stroke="none"/><text fill="#000000" stroke="none" font-family="Arial" font-size="13px" font-style="normal" font-weight="normal" text-decoration="none" x="141" y="973">+run()</text></g></g><g transform="translate(-126,-38) scale(1,1)"><g><path fill="none" stroke="none"/><text fill="#000000" stroke="none" font-family="Arial" font-size="13px" font-style="normal" font-weight="normal" text-decoration="none" x="141" y="988">-countSecond()</text></g></g><g transform="translate(-126,-38) scale(1,1)"><g><path fill="none" stroke="none"/><text fill="#000000" stroke="none" font-family="Arial" font-size="13px" font-style="normal" font-weight="normal" text-decoration="none" x="141" y="1003">-getMonthDays(): int</text></g></g><g transform="translate(-126,-38) scale(1,1)"><g><path fill="none" stroke="none"/><text fill="#000000" stroke="none" font-family="Arial" font-size="13px" font-style="normal" font-weight="normal" text-decoration="none" x="141" y="1018">-isLeapYear(): bool</text></g></g><g transform="translate(-126,-38) scale(1,1)"><rect fill="#C0C0C0" stroke="none" x="1303" y="599" width="296.58056640625" height="115" opacity="0.2"/></g><g transform="translate(-126,-38) scale(1,1)"><rect fill="#ffffff" stroke="none" x="1296" y="592" width="296.58056640625" height="115"/></g><g transform="translate(-126,-38) scale(1,1)"><path fill="none" stroke="#000000" d="M 1296 592 L 1592.58056640625 592 L 1592.58056640625 707 L 1296 707 L 1296 592 Z Z" stroke-miterlimit="10"/></g><g transform="translate(-126,-38) scale(1,1)"><path fill="none" stroke="#000000" d="M 1296 617 L 1592.58056640625 617" stroke-miterlimit="10"/></g><g transform="translate(-126,-38) scale(1,1)"><path fill="none" stroke="#000000" d="M 1296 640 L 1592.58056640625 640" stroke-miterlimit="10"/></g><g transform="translate(-126,-38) scale(1,1)"><g><path fill="none" stroke="none"/><text fill="#000000" stroke="none" font-family="Arial" font-size="13px" font-style="normal" font-weight="bold" text-decoration="none" x="1419.375732421875" y="610">Counter</text></g></g><g transform="translate(-126,-38) scale(1,1)"><g><path fill="none" stroke="none"/><text fill="#000000" stroke="none" font-family="Arial" font-size="13px" font-style="normal" font-weight="normal" text-decoration="none" x="1301" y="633">-count: int</text></g></g><g transform="translate(-126,-38) scale(1,1)"><g><path fill="none" stroke="none"/><text fill="#000000" stroke="none" font-family="Arial" font-size="13px" font-style="normal" font-weight="normal" text-decoration="none" x="1301" y="656">«explicit constructor»+Counter(startCount: int = 0)</text></g></g><g transform="translate(-126,-38) scale(1,1)"><g><path fill="none" stroke="none"/><text fill="#000000" stroke="none" font-family="Arial" font-size="13px" font-style="normal" font-weight="normal" text-decoration="none" x="1301" y="671">+{virtual} getCount(): int</text></g></g><g transform="translate(-126,-38) scale(1,1)"><g><path fill="none" stroke="none"/><text fill="#000000" stroke="none" font-family="Arial" font-size="13px" font-style="normal" font-weight="normal" text-decoration="none" x="1301" y="686">+setCount(newCount: int)</text></g></g><g transform="translate(-126,-38) scale(1,1)"><g><path fill="none" stroke="none"/><text fill="#000000" stroke="none" font-family="Arial" font-size="13px" font-style="normal" font-weight="normal" text-decoration="none" x="1301" y="701">+{virtual} increment()</text></g></g><g transform="translate(-126,-38) scale(1,1)"><rect fill="#C0C0C0" stroke="none" x="1151" y="799" width="599.9794921875" height="130" opacity="0.2"/></g><g transform="translate(-126,-38) scale(1,1)"><rect fill="#ffffff" stroke="none" x="1144" y="792" width="599.9794921875" height="130"/></g><g transform="translate(-126,-38) scale(1,1)"><path fill="none" stroke="#000000" d="M 1144 792 L 1743.9794921875 792 L 1743.9794921875 922 L 1144 922 L 1144 792 Z Z" stroke-miterlimit="10"/></g><g transform="translate(-126,-38) scale(1,1)"><path fill="none" stroke="#000000" d="M 1144 817 L 1743.9794921875 817" stroke-miterlimit="10"/></g><g transform="translate(-126,-38) scale(1,1)"><path fill="none" stroke="#000000" d="M 1144 855 L 1743.9794921875 855" stroke-miterlimit="10"/></g><g transform="translate(-126,-38) scale(1,1)"><g><path fill="none" stroke="none"/><text fill="#000000" stroke="none" font-family="Arial" font-size="13px" font-style="normal" font-weight="bold" text-decoration="none" x="1395.972900390625" y="810">ModuloCounter</text></g></g><g transform="translate(-126,-38) scale(1,1)"><g><path fill="none" stroke="none"/><text fill="#000000" stroke="none" font-family="Arial" font-size="13px" font-style="normal" font-weight="normal" text-decoration="none" x="1149" y="833">-nextCounter: Counter*</text></g></g><g transform="translate(-126,-38) scale(1,1)"><g><path fill="none" stroke="none"/><text fill="#000000" stroke="none" font-family="Arial" font-size="13px" font-style="normal" font-weight="normal" text-decoration="none" x="1149" y="848">-moduloValue: int = 100</text></g></g><g transform="translate(-126,-38) scale(1,1)"><g><path fill="none" stroke="none"/><text fill="#000000" stroke="none" font-family="Arial" font-size="13px" font-style="normal" font-weight="normal" text-decoration="none" x="1149" y="871">«constructor»+ModuloCounter(nextModuloCounter: Counter*, startValue: int, moduloValue: int)</text></g></g><g transform="translate(-126,-38) scale(1,1)"><g><path fill="none" stroke="none"/><text fill="#000000" stroke="none" font-family="Arial" font-size="13px" font-style="normal" font-weight="normal" text-decoration="none" x="1149" y="886">+{virtual} increment()</text></g></g><g transform="translate(-126,-38) scale(1,1)"><g><path fill="none" stroke="none"/><text fill="#000000" stroke="none" font-family="Arial" font-size="13px" font-style="normal" font-weight="normal" text-decoration="none" x="1149" y="901">+setModuloValue(newValue: int)</text></g></g><g transform="translate(-126,-38) scale(1,1)"><g><path fill="none" stroke="none"/><text fill="#000000" stroke="none" font-family="Arial" font-size="13px" font-style="normal" font-weight="normal" text-decoration="none" x="1149" y="916">+getModuloValue(): int</text></g></g><g transform="translate(-126,-38) scale(1,1)"><rect fill="#C0C0C0" stroke="none" x="1119" y="991" width="677.99853515625" height="145" opacity="0.2"/></g><g transform="translate(-126,-38) scale(1,1)"><rect fill="#ffffff" stroke="none" x="1112" y="984" width="677.99853515625" height="145"/></g><g transform="translate(-126,-38) scale(1,1)"><path fill="none" stroke="#000000" d="M 1112 984 L 1789.99853515625 984 L 1789.99853515625 1129 L 1112 1129 L 1112 984 Z Z" stroke-miterlimit="10"/></g><g transform="translate(-126,-38) scale(1,1)"><path fill="none" stroke="#000000" d="M 1112 1009 L 1789.99853515625 1009" stroke-miterlimit="10"/></g><g transform="translate(-126,-38) scale(1,1)"><path fill="none" stroke="#000000" d="M 1112 1047 L 1789.99853515625 1047" stroke-miterlimit="10"/></g><g transform="translate(-126,-38) scale(1,1)"><g><path fill="none" stroke="none"/><text fill="#000000" stroke="none" font-family="Arial" font-size="13px" font-style="normal" font-weight="bold" text-decoration="none" x="1407.30517578125" y="1002">OffsetCounter</text></g></g><g transform="translate(-126,-38) scale(1,1)"><g><path fill="none" stroke="none"/><text fill="#000000" stroke="none" font-family="Arial" font-size="13px" font-style="normal" font-weight="normal" text-decoration="none" x="1117" y="1025">-startCountingAt: int</text></g></g><g transform="translate(-126,-38) scale(1,1)"><g><path fill="none" stroke="none"/><text fill="#000000" stroke="none" font-family="Arial" font-size="13px" font-style="normal" font-weight="normal" text-decoration="none" x="1117" y="1040">-stopCountingAt: int</text></g></g><g transform="translate(-126,-38) scale(1,1)"><g><path fill="none" stroke="none"/><text fill="#000000" stroke="none" font-family="Arial" font-size="13px" font-style="normal" font-weight="normal" text-decoration="none" x="1117" y="1063">«constructor»+OffsetCounter(nextCounter: Counter*, startValue: int, startCountingAt: int, stopCountingAt: int)</text></g></g><g transform="translate(-126,-38) scale(1,1)"><g><path fill="none" stroke="none"/><text fill="#000000" stroke="none" font-family="Arial" font-size="13px" font-style="normal" font-weight="normal" text-decoration="none" x="1117" y="1078">+increment()</text></g></g><g transform="translate(-126,-38) scale(1,1)"><g><path fill="none" stroke="none"/><text fill="#000000" stroke="none" font-family="Arial" font-size="13px" font-style="normal" font-weight="normal" text-decoration="none" x="1117" y="1093">+getCount(): int</text></g></g><g transform="translate(-126,-38) scale(1,1)"><g><path fill="none" stroke="none"/><text fill="#000000" stroke="none" font-family="Arial" font-size="13px" font-style="normal" font-weight="normal" text-decoration="none" x="1117" y="1108">+setStopCountingAt(newStopCountingAt: int)</text></g></g><g transform="translate(-126,-38) scale(1,1)"><g><path fill="none" stroke="none"/><text fill="#000000" stroke="none" font-family="Arial" font-size="13px" font-style="normal" font-weight="normal" text-decoration="none" x="1117" y="1123">+getStopCountingAt(): int</text></g></g><g transform="translate(-126,-38) scale(1,1)"><path fill="#C0C0C0" stroke="none" d="M 570.356689453125 530.5 C 570.356689453125 524.1487248 575.505414253125 519 581.856689453125 519 C 588.207964653125 519 593.356689453125 524.1487248 593.356689453125 530.5 C 593.356689453125 536.8512752 588.207964653125 542 581.856689453125 542 C 575.505414253125 542 570.356689453125 536.8512752 570.356689453125 530.5 Z" opacity="0.2"/></g><g transform="translate(-126,-38) scale(1,1)"><path fill="#ffffff" stroke="none" d="M 563.356689453125 523.5 C 563.356689453125 517.1487248 568.505414253125 512 574.856689453125 512 C 581.207964653125 512 586.356689453125 517.1487248 586.356689453125 523.5 C 586.356689453125 529.8512752 581.207964653125 535 574.856689453125 535 C 568.505414253125 535 563.356689453125 529.8512752 563.356689453125 523.5 Z"/></g><g transform="translate(-126,-38) scale(1,1)"><path fill="none" stroke="#000000" d="M 563.356689453125 523.5 C 563.356689453125 517.1487248 568.505414253125 512 574.856689453125 512 C 581.207964653125 512 586.356689453125 517.1487248 586.356689453125 523.5 C 586.356689453125 529.8512752 581.207964653125 535 574.856689453125 535 C 568.505414253125 535 563.356689453125 529.8512752 563.356689453125 523.5 Z" stroke-miterlimit="10"/></g><g transform="translate(-126,-38) scale(1,1)"><path fill="none" stroke="#000000" d="M 328 560 L 821.71337890625 560" stroke-miterlimit="10"/></g><g transform="translate(-126,-38) scale(1,1)"><g><path fill="none" stroke="none"/><text fill="#000000" stroke="none" font-family="Arial" font-size="13px" font-style="normal" font-weight="bold" text-decoration="none" x="562.942138671875" y="553">HMI</text></g></g><g transform="translate(-126,-38) scale(1,1)"><g><path fill="none" stroke="none"/><text fill="#000000" stroke="none" font-family="Arial" font-size="13px" font-style="normal" font-weight="normal" text-decoration="none" x="333" y="576">+getInstance(): HMI&amp;</text><path fill="none" stroke="#000000" d="M 333 577.5 L 456.18896484375 577.5" stroke-miterlimit="10"/></g></g><g transform="translate(-126,-38) scale(1,1)"><g><path fill="none" stroke="none"/><text fill="#000000" stroke="none" font-family="Arial" font-size="13px" font-style="normal" font-weight="normal" text-decoration="none" x="333" y="591">+showDate(day: int, month: int, year: int)</text></g></g><g transform="translate(-126,-38) scale(1,1)"><g><path fill="none" stroke="none"/><text fill="#000000" stroke="none" font-family="Arial" font-size="13px" font-style="normal" font-weight="normal" text-decoration="none" x="333" y="606">+showTime(hour: int, minute: int, second: int)</text></g></g><g transform="translate(-126,-38) scale(1,1)"><g><path fill="none" stroke="none"/><text fill="#000000" stroke="none" font-family="Arial" font-size="13px" font-style="normal" font-weight="normal" text-decoration="none" x="333" y="621">+showDateTime(day: int, month: int, year: int, hour: int, minute: int, second: int)</text></g></g><g transform="translate(-126,-38) scale(1,1)"><g><path fill="none" stroke="none"/><text fill="#000000" stroke="none" font-family="Arial" font-size="13px" font-style="normal" font-weight="normal" text-decoration="none" x="333" y="636">+checkRun(): bool</text></g></g><g transform="translate(-126,-38) scale(1,1)"><g><path fill="none" stroke="none"/><text fill="#000000" stroke="none" font-family="Arial" font-size="13px" font-style="normal" font-weight="normal" text-decoration="none" x="333" y="651">+checkShow(): bool</text></g></g><g transform="translate(-126,-38) scale(1,1)"><rect fill="#C0C0C0" stroke="none" x="151" y="199" width="493.71337890625" height="160" opacity="0.2"/></g><g transform="translate(-126,-38) scale(1,1)"><rect fill="#ffffff" stroke="none" x="144" y="192" width="493.71337890625" height="160"/></g><g transform="translate(-126,-38) scale(1,1)"><path fill="none" stroke="#000000" d="M 144 192 L 637.71337890625 192 L 637.71337890625 352 L 144 352 L 144 192 Z Z" stroke-miterlimit="10"/></g><g transform="translate(-126,-38) scale(1,1)"><path fill="none" stroke="#000000" d="M 144 217 L 637.71337890625 217" stroke-miterlimit="10"/></g><g transform="translate(-126,-38) scale(1,1)"><path fill="none" stroke="#000000" d="M 144 240 L 637.71337890625 240" stroke-miterlimit="10"/></g><g transform="translate(-126,-38) scale(1,1)"><g><path fill="none" stroke="none"/><text fill="#000000" stroke="none" font-family="Arial" font-size="13px" font-style="normal" font-weight="bold" text-decoration="none" x="353.30078125" y="210">ConsoleHMI</text></g></g><g transform="translate(-126,-38) scale(1,1)"><g><path fill="none" stroke="none"/><text fill="#000000" stroke="none" font-family="Arial" font-size="13px" font-style="normal" font-weight="normal" text-decoration="none" x="149" y="233">-runNumber: int</text></g></g><g transform="translate(-126,-38) scale(1,1)"><g><path fill="none" stroke="none"/><text fill="#000000" stroke="none" font-family="Arial" font-size="13px" font-style="normal" font-weight="normal" text-decoration="none" x="149" y="256">+getInstance(): ConsoleHMI&amp;</text><path fill="none" stroke="#000000" d="M 149 257.5 L 319.88525390625 257.5" stroke-miterlimit="10"/></g></g><g transform="translate(-126,-38) scale(1,1)"><g><path fill="none" stroke="none"/><text fill="#000000" stroke="none" font-family="Arial" font-size="13px" font-style="normal" font-weight="normal" text-decoration="none" x="149" y="271">+showDate(day: int, month: int, year: int)</text></g></g><g transform="translate(-126,-38) scale(1,1)"><g><path fill="none" stroke="none"/><text fill="#000000" stroke="none" font-family="Arial" font-size="13px" font-style="normal" font-weight="normal" text-decoration="none" x="149" y="286">+showTime(hour: int, minute: int, second: int)</text></g></g><g transform="translate(-126,-38) scale(1,1)"><g><path fill="none" stroke="none"/><text fill="#000000" stroke="none" font-family="Arial" font-size="13px" font-style="normal" font-weight="normal" text-decoration="none" x="149" y="301">+showDateTime(day: int, month: int, year: int, hour: int, minute: int, second: int)</text></g></g><g transform="translate(-126,-38) scale(1,1)"><g><path fill="none" stroke="none"/><text fill="#000000" stroke="none" font-family="Arial" font-size="13px" font-style="normal" font-weight="normal" text-decoration="none" x="149" y="316">+checkRun(): bool</text></g></g><g transform="translate(-126,-38) scale(1,1)"><g><path fill="none" stroke="none"/><text fill="#000000" stroke="none" font-family="Arial" font-size="13px" font-style="normal" font-weight="normal" text-decoration="none" x="149" y="331">+checkShow(): bool</text></g></g><g transform="translate(-126,-38) scale(1,1)"><g><path fill="none" stroke="none"/><text fill="#000000" stroke="none" font-family="Arial" font-size="13px" font-style="normal" font-weight="normal" text-decoration="none" x="149" y="346">«constructor»-ConsoleHMI()</text></g></g><g transform="translate(-126,-38) scale(1,1)"><rect fill="#C0C0C0" stroke="none" x="679" y="55" width="493.71337890625" height="385" opacity="0.2"/></g><g transform="translate(-126,-38) scale(1,1)"><rect fill="#ffffff" stroke="none" x="672" y="48" width="493.71337890625" height="385"/></g><g transform="translate(-126,-38) scale(1,1)"><path fill="none" stroke="#000000" d="M 672 48 L 1165.71337890625 48 L 1165.71337890625 433 L 672 433 L 672 48 Z Z" stroke-miterlimit="10"/></g><g transform="translate(-126,-38) scale(1,1)"><path fill="none" stroke="#000000" d="M 672 73 L 1165.71337890625 73" stroke-miterlimit="10"/></g><g transform="translate(-126,-38) scale(1,1)"><path fill="none" stroke="#000000" d="M 672 246 L 1165.71337890625 246" stroke-miterlimit="10"/></g><g transform="translate(-126,-38) scale(1,1)"><g><path fill="none" stroke="none"/><text fill="#000000" stroke="none" font-family="Arial" font-size="13px" font-style="normal" font-weight="bold" text-decoration="none" x="877.317626953125" y="66">HardwareHMI</text></g></g><g transform="translate(-126,-38) scale(1,1)"><g><path fill="none" stroke="none"/><text fill="#000000" stroke="none" font-family="Arial" font-size="13px" font-style="normal" font-weight="normal" text-decoration="none" x="677" y="89">-gpioA: StmGpio</text></g></g><g transform="translate(-126,-38) scale(1,1)"><g><path fill="none" stroke="none"/><text fill="#000000" stroke="none" font-family="Arial" font-size="13px" font-style="normal" font-weight="normal" text-decoration="none" x="677" y="104">-gpioB: StmGpio</text></g></g><g transform="translate(-126,-38) scale(1,1)"><g><path fill="none" stroke="none"/><text fill="#000000" stroke="none" font-family="Arial" font-size="13px" font-style="normal" font-weight="normal" text-decoration="none" x="677" y="119">-isRunning: bool</text></g></g><g transform="translate(-126,-38) scale(1,1)"><g><path fill="none" stroke="none"/><text fill="#000000" stroke="none" font-family="Arial" font-size="13px" font-style="normal" font-weight="normal" text-decoration="none" x="677" y="134">-LED_1_A: int {readOnly}</text><path fill="none" stroke="#000000" d="M 677 135.5 L 822.97705078125 135.5" stroke-miterlimit="10"/></g></g><g transform="translate(-126,-38) scale(1,1)"><g><path fill="none" stroke="none"/><text fill="#000000" stroke="none" font-family="Arial" font-size="13px" font-style="normal" font-weight="normal" text-decoration="none" x="677" y="149">-LED_2_A: int {readOnly}</text><path fill="none" stroke="#000000" d="M 677 150.5 L 822.97705078125 150.5" stroke-miterlimit="10"/></g></g><g transform="translate(-126,-38) scale(1,1)"><g><path fill="none" stroke="none"/><text fill="#000000" stroke="none" font-family="Arial" font-size="13px" font-style="normal" font-weight="normal" text-decoration="none" x="677" y="164">-LED_3_A: int {readOnly}</text><path fill="none" stroke="#000000" d="M 677 165.5 L 822.97705078125 165.5" stroke-miterlimit="10"/></g></g><g transform="translate(-126,-38) scale(1,1)"><g><path fill="none" stroke="none"/><text fill="#000000" stroke="none" font-family="Arial" font-size="13px" font-style="normal" font-weight="normal" text-decoration="none" x="677" y="179">-LED_4_B: int {readOnly}</text><path fill="none" stroke="#000000" d="M 677 180.5 L 822.97705078125 180.5" stroke-miterlimit="10"/></g></g><g transform="translate(-126,-38) scale(1,1)"><g><path fill="none" stroke="none"/><text fill="#000000" stroke="none" font-family="Arial" font-size="13px" font-style="normal" font-weight="normal" text-decoration="none" x="677" y="194">-SW_1_B: int {readOnly}</text><path fill="none" stroke="#000000" d="M 677 195.5 L 818.62890625 195.5" stroke-miterlimit="10"/></g></g><g transform="translate(-126,-38) scale(1,1)"><g><path fill="none" stroke="none"/><text fill="#000000" stroke="none" font-family="Arial" font-size="13px" font-style="normal" font-weight="normal" text-decoration="none" x="677" y="209">-SW_2_B: int {readOnly}</text><path fill="none" stroke="#000000" d="M 677 210.5 L 818.62890625 210.5" stroke-miterlimit="10"/></g></g><g transform="translate(-126,-38) scale(1,1)"><g><path fill="none" stroke="none"/><text fill="#000000" stroke="none" font-family="Arial" font-size="13px" font-style="normal" font-weight="normal" text-decoration="none" x="677" y="224">-GPIOA_ADDRESS: uint32_t {readOnly}</text><path fill="none" stroke="#000000" d="M 677 225.5 L 911.1142578125 225.5" stroke-miterlimit="10"/></g></g><g transform="translate(-126,-38) scale(1,1)"><g><path fill="none" stroke="none"/><text fill="#000000" stroke="none" font-family="Arial" font-size="13px" font-style="normal" font-weight="normal" text-decoration="none" x="677" y="239">-GPIOB_ADDRESS: uint32_t {readOnly}</text><path fill="none" stroke="#000000" d="M 677 240.5 L 911.1142578125 240.5" stroke-miterlimit="10"/></g></g><g transform="translate(-126,-38) scale(1,1)"><g><path fill="none" stroke="none"/><text fill="#000000" stroke="none" font-family="Arial" font-size="13px" font-style="normal" font-weight="normal" text-decoration="none" x="677" y="262">+getInstance(): HardwareHMI&amp;</text><path fill="none" stroke="#000000" d="M 677 263.5 L 856.54345703125 263.5" stroke-miterlimit="10"/></g></g><g transform="translate(-126,-38) scale(1,1)"><g><path fill="none" stroke="none"/><text fill="#000000" stroke="none" font-family="Arial" font-size="13px" font-style="normal" font-weight="normal" text-decoration="none" x="677" y="277">+showDate(day: int, month: int, year: int)</text></g></g><g transform="translate(-126,-38) scale(1,1)"><g><path fill="none" stroke="none"/><text fill="#000000" stroke="none" font-family="Arial" font-size="13px" font-style="normal" font-weight="normal" text-decoration="none" x="677" y="292">+showTime(hour: int, minute: int, second: int)</text></g></g><g transform="translate(-126,-38) scale(1,1)"><g><path fill="none" stroke="none"/><text fill="#000000" stroke="none" font-family="Arial" font-size="13px" font-style="normal" font-weight="normal" text-decoration="none" x="677" y="307">+showDateTime(day: int, month: int, year: int, hour: int, minute: int, second: int)</text></g></g><g transform="translate(-126,-38) scale(1,1)"><g><path fill="none" stroke="none"/><text fill="#000000" stroke="none" font-family="Arial" font-size="13px" font-style="normal" font-weight="normal" text-decoration="none" x="677" y="322">+checkRun(): bool</text></g></g><g transform="translate(-126,-38) scale(1,1)"><g><path fill="none" stroke="none"/><text fill="#000000" stroke="none" font-family="Arial" font-size="13px" font-style="normal" font-weight="normal" text-decoration="none" x="677" y="337">+checkShow(): bool</text></g></g><g transform="translate(-126,-38) scale(1,1)"><g><path fill="none" stroke="none"/><text fill="#000000" stroke="none" font-family="Arial" font-size="13px" font-style="normal" font-weight="normal" text-decoration="none" x="677" y="352">«constructor»-HardwareHMI()</text></g></g><g transform="translate(-126,-38) scale(1,1)"><g><path fill="none" stroke="none"/><text fill="#000000" stroke="none" font-family="Arial" font-size="13px" font-style="normal" font-weight="normal" text-decoration="none" x="677" y="367">-showNumber(number: int)</text></g></g><g transform="translate(-126,-38) scale(1,1)"><g><path fill="none" stroke="none"/><text fill="#000000" stroke="none" font-family="Arial" font-size="13px" font-style="normal" font-weight="normal" text-decoration="none" x="677" y="382">-sleep()</text></g></g><g transform="translate(-126,-38) scale(1,1)"><g><path fill="none" stroke="none"/><text fill="#000000" stroke="none" font-family="Arial" font-size="13px" font-style="normal" font-weight="normal" text-decoration="none" x="677" y="397">-sleepLong()</text></g></g><g transform="translate(-126,-38) scale(1,1)"><g><path fill="none" stroke="none"/><text fill="#000000" stroke="none" font-family="Arial" font-size="13px" font-style="normal" font-weight="normal" text-decoration="none" x="677" y="412">-setLEDs(led1: bool, led2: bool, led3: bool, led4_bool)</text></g></g><g transform="translate(-126,-38) scale(1,1)"><g><path fill="none" stroke="none"/><text fill="#000000" stroke="none" font-family="Arial" font-size="13px" font-style="normal" font-weight="normal" text-decoration="none" x="677" y="427">-setupHardware()</text></g></g><g transform="translate(-126,-38) scale(1,1)"><rect fill="#C0C0C0" stroke="none" x="1287" y="239" width="70.39453125" height="44" opacity="0.2"/></g><g transform="translate(-126,-38) scale(1,1)"><rect fill="#ffffff" stroke="none" x="1280" y="232" width="70.39453125" height="44"/></g><g transform="translate(-126,-38) scale(1,1)"><path fill="none" stroke="#000000" d="M 1280 232 L 1350.39453125 232 L 1350.39453125 276 L 1280 276 L 1280 232 Z Z" stroke-miterlimit="10"/></g><g transform="translate(-126,-38) scale(1,1)"><path fill="none" stroke="#000000" d="M 1280 257 L 1350.39453125 257" stroke-miterlimit="10"/></g><g transform="translate(-126,-38) scale(1,1)"><path fill="none" stroke="#000000" d="M 1280 267 L 1350.39453125 267" stroke-miterlimit="10"/></g><g transform="translate(-126,-38) scale(1,1)"><g><path fill="none" stroke="none"/><text fill="#000000" stroke="none" font-family="Arial" font-size="13px" font-style="normal" font-weight="bold" text-decoration="none" x="1288.114990234375" y="250">StmGpio</text></g></g><g transform="translate(-126,-38) scale(1,1)"><path fill="none" stroke="#000000" d="M 1447 983 L 1445 923" stroke-miterlimit="10"/></g><g transform="translate(-126,-38) scale(1,1)"><path fill="#FFFFFF" stroke="none" d="M 1454.0914977393595 943.0335885166692 L 1445 923 L 1437.2627734110056 943.594545994281"/></g><g transform="translate(-126,-38) scale(1,1)"><path fill="none" stroke="#000000" d="M 1454.0914977393595 943.0335885166692 L 1445 923 L 1437.2627734110056 943.594545994281 L 1454.0914977393595 943.0335885166692" stroke-miterlimit="10"/></g><g transform="translate(-126,-38) scale(1,1)"><path fill="none" stroke="#000000" d="M 1443 791 L 1444 708" stroke-miterlimit="10"/></g><g transform="translate(-126,-38) scale(1,1)"><path fill="#FFFFFF" stroke="none" d="M 1452.1735585694637 728.42530147419 L 1444 708 L 1435.336709510714 728.2224478710725"/></g><g transform="translate(-126,-38) scale(1,1)"><path fill="none" stroke="#000000" d="M 1452.1735585694637 728.42530147419 L 1444 708 L 1435.336709510714 728.2224478710725 L 1452.1735585694637 728.42530147419" stroke-miterlimit="10"/></g><g transform="translate(-126,-38) scale(1,1)"><path fill="none" stroke="#000000" d="M 438 353 L 530 511" stroke-miterlimit="10"/></g><g transform="translate(-126,-38) scale(1,1)"><path fill="#FFFFFF" stroke="none" d="M 512.4969492379995 497.67171376272125 L 530 511 L 527.0479956947122 489.19895253476193"/></g><g transform="translate(-126,-38) scale(1,1)"><path fill="none" stroke="#000000" d="M 512.4969492379995 497.67171376272125 L 530 511 L 527.0479956947122 489.19895253476193 L 512.4969492379995 497.67171376272125" stroke-miterlimit="10"/></g><g transform="translate(-126,-38) scale(1,1)"><path fill="none" stroke="#000000" d="M 725 434 L 648 511" stroke-miterlimit="10"/></g><g transform="translate(-126,-38) scale(1,1)"><path fill="#FFFFFF" stroke="none" d="M 656.419035512032 490.6746502847517 L 648 511 L 668.3253497152483 502.580964487968"/></g><g transform="translate(-126,-38) scale(1,1)"><path fill="none" stroke="#000000" d="M 656.419035512032 490.6746502847517 L 648 511 L 668.3253497152483 502.580964487968 L 656.419035512032 490.6746502847517" stroke-miterlimit="10"/></g><g transform="translate(-126,-38) scale(1,1)"><path fill="none" stroke="#000000" d="M 572 659 L 570 743" stroke-miterlimit="10"/></g><g transform="translate(-126,-38) scale(1,1)"><path fill="#000000" stroke="none" d="M 566.0335748038652 732.7400062785854 L 570 743 L 574.4502249820875 732.9404027114002 L 570.5236611148183 721.006233177629"/></g><g transform="translate(-126,-38) scale(1,1)"><path fill="none" stroke="#000000" d="M 566.0335748038652 732.7400062785854 L 570 743 L 574.4502249820875 732.9404027114002 L 570.5236611148183 721.006233177629 L 566.0335748038652 732.7400062785854" stroke-miterlimit="10"/></g><g transform="translate(-126,-38) scale(1,1)"><g><path fill="none" stroke="none"/><text fill="#000000" stroke="none" font-family="Arial" font-size="13px" font-style="normal" font-weight="normal" text-decoration="none" x="585.13134765625" y="684">-hmi</text></g></g><g transform="translate(-126,-38) scale(1,1)"><path fill="none" stroke="#000000" d="M 1295 689 L 997 769" stroke-miterlimit="10"/></g><g transform="translate(-126,-38) scale(1,1)"><path fill="#000000" stroke="none" d="M 1005.7237173861313 762.2994959169545 L 997 769 L 1007.9065715953781 770.4306278463988 L 1018.2476716830715 763.2959270649473"/></g><g transform="translate(-126,-38) scale(1,1)"><path fill="none" stroke="#000000" d="M 1005.7237173861313 762.2994959169545 L 997 769 L 1007.9065715953781 770.4306278463988 L 1018.2476716830715 763.2959270649473 L 1005.7237173861313 762.2994959169545" stroke-miterlimit="10"/></g><g transform="translate(-126,-38) scale(1,1)"><g><path fill="none" stroke="none"/><text fill="#000000" stroke="none" font-family="Arial" font-size="13px" font-style="normal" font-weight="normal" text-decoration="none" x="1134.13134765625" y="746.5">-year</text></g></g><g transform="translate(-126,-38) scale(1,1)"><path fill="none" stroke="#000000" d="M 1143 866 L 997 871" stroke-miterlimit="10"/></g><g transform="translate(-126,-38) scale(1,1)"><path fill="#000000" stroke="none" d="M 1007.0126434572958 866.445115698827 L 997 871 L 1007.3007976631366 874.8592185093773 L 1018.9871102298547 870.2470167729501"/></g><g transform="translate(-126,-38) scale(1,1)"><path fill="none" stroke="#000000" d="M 1007.0126434572958 866.445115698827 L 997 871 L 1007.3007976631366 874.8592185093773 L 1018.9871102298547 870.2470167729501 L 1007.0126434572958 866.445115698827" stroke-miterlimit="10"/></g><g transform="translate(-126,-38) scale(1,1)"><g><path fill="none" stroke="none"/><text fill="#000000" stroke="none" font-family="Arial" font-size="13px" font-style="normal" font-weight="normal" text-decoration="none" x="1001.13134765625" y="858">-second</text></g></g><g transform="translate(-126,-38) scale(1,1)"><path fill="none" stroke="#000000" d="M 1143 866 L 997 871" stroke-miterlimit="10"/></g><g transform="translate(-126,-38) scale(1,1)"><path fill="#000000" stroke="none" d="M 1007.0126434572958 866.445115698827 L 997 871 L 1007.3007976631366 874.8592185093773 L 1018.9871102298547 870.2470167729501"/></g><g transform="translate(-126,-38) scale(1,1)"><path fill="none" stroke="#000000" d="M 1007.0126434572958 866.445115698827 L 997 871 L 1007.3007976631366 874.8592185093773 L 1018.9871102298547 870.2470167729501 L 1007.0126434572958 866.445115698827" stroke-miterlimit="10"/></g><g transform="translate(-126,-38) scale(1,1)"><g><path fill="none" stroke="none"/><text fill="#000000" stroke="none" font-family="Arial" font-size="13px" font-style="normal" font-weight="normal" text-decoration="none" x="1040.13134765625" y="891">-minute</text></g></g><g transform="translate(-126,-38) scale(1,1)"><path fill="none" stroke="#000000" d="M 1143 866 L 997 871" stroke-miterlimit="10"/></g><g transform="translate(-126,-38) scale(1,1)"><path fill="#000000" stroke="none" d="M 1007.0126434572958 866.445115698827 L 997 871 L 1007.3007976631366 874.8592185093773 L 1018.9871102298547 870.2470167729501"/></g><g transform="translate(-126,-38) scale(1,1)"><path fill="none" stroke="#000000" d="M 1007.0126434572958 866.445115698827 L 997 871 L 1007.3007976631366 874.8592185093773 L 1018.9871102298547 870.2470167729501 L 1007.0126434572958 866.445115698827" stroke-miterlimit="10"/></g><g transform="translate(-126,-38) scale(1,1)"><g><path fill="none" stroke="none"/><text fill="#000000" stroke="none" font-family="Arial" font-size="13px" font-style="normal" font-weight="normal" text-decoration="none" x="1097.13134765625" y="859">-hour</text></g></g><g transform="translate(-126,-38) scale(1,1)"><path fill="none" stroke="#000000" d="M 1111 990 L 997 968" stroke-miterlimit="10"/></g><g transform="translate(-126,-38) scale(1,1)"><path fill="#000000" stroke="none" d="M 1007.7762072497957 965.7924318109168 L 997 968 L 1006.1809156582345 974.0589427853697 L 1018.6014341759285 972.1686978234248"/></g><g transform="translate(-126,-38) scale(1,1)"><path fill="none" stroke="#000000" d="M 1007.7762072497957 965.7924318109168 L 997 968 L 1006.1809156582345 974.0589427853697 L 1018.6014341759285 972.1686978234248 L 1007.7762072497957 965.7924318109168" stroke-miterlimit="10"/></g><g transform="translate(-126,-38) scale(1,1)"><g><path fill="none" stroke="none"/><text fill="#000000" stroke="none" font-family="Arial" font-size="13px" font-style="normal" font-weight="normal" text-decoration="none" x="1017.13134765625" y="1003">-month</text></g></g><g transform="translate(-126,-38) scale(1,1)"><path fill="none" stroke="#000000" d="M 1444 708 L 1443 791" stroke-miterlimit="10"/></g><g transform="translate(-126,-38) scale(1,1)"><path fill="#FFFFFF" stroke="none" d="M 1438.9132207152682 780.787349262905 L 1443 791 L 1447.3316452446431 780.8887760644637 L 1443.265041005125 769.0015965746238"/></g><g transform="translate(-126,-38) scale(1,1)"><path fill="none" stroke="#000000" d="M 1438.9132207152682 780.787349262905 L 1443 791 L 1447.3316452446431 780.8887760644637 L 1443.265041005125 769.0015965746238 L 1438.9132207152682 780.787349262905" stroke-miterlimit="10"/></g><g transform="translate(-126,-38) scale(1,1)"><g><path fill="none" stroke="none"/><text fill="#000000" stroke="none" font-family="Arial" font-size="13px" font-style="normal" font-weight="normal" text-decoration="none" x="1463.13134765625" y="757">-nextCounter</text></g></g><g transform="translate(-126,-38) scale(1,1)"><path fill="none" stroke="#000000" d="M 1111 990 L 997 968" stroke-miterlimit="10"/></g><g transform="translate(-126,-38) scale(1,1)"><path fill="#000000" stroke="none" d="M 1007.7762072497957 965.7924318109168 L 997 968 L 1006.1809156582345 974.0589427853697 L 1018.6014341759285 972.1686978234248"/></g><g transform="translate(-126,-38) scale(1,1)"><path fill="none" stroke="#000000" d="M 1007.7762072497957 965.7924318109168 L 997 968 L 1006.1809156582345 974.0589427853697 L 1018.6014341759285 972.1686978234248 L 1007.7762072497957 965.7924318109168" stroke-miterlimit="10"/></g><g transform="translate(-126,-38) scale(1,1)"><g><path fill="none" stroke="none"/><text fill="#000000" stroke="none" font-family="Arial" font-size="13px" font-style="normal" font-weight="normal" text-decoration="none" x="1040.13134765625" y="970">-day</text></g></g><g transform="translate(-126,-38) scale(1,1)"><path fill="none" stroke="#000000" d="M 1279 253 L 1167 249" stroke-miterlimit="10"/></g><g transform="translate(-126,-38) scale(1,1)"><path fill="#000000" stroke="none" d="M 1177.3064438849528 245.15588573968978 L 1167 249 L 1177.00595562209 253.56955709984746 L 1188.9859827956461 249.78521367127308"/></g><g transform="translate(-126,-38) scale(1,1)"><path fill="none" stroke="#000000" d="M 1177.3064438849528 245.15588573968978 L 1167 249 L 1177.00595562209 253.56955709984746 L 1188.9859827956461 249.78521367127308 L 1177.3064438849528 245.15588573968978" stroke-miterlimit="10"/></g><g transform="translate(-126,-38) scale(1,1)"><g><path fill="none" stroke="none"/><text fill="#000000" stroke="none" font-family="Arial" font-size="13px" font-style="normal" font-weight="normal" text-decoration="none" x="1203.5" y="270">-gpioA</text></g></g><g transform="translate(-126,-38) scale(1,1)"><path fill="none" stroke="#000000" d="M 1279 253 L 1167 249" stroke-miterlimit="10"/></g><g transform="translate(-126,-38) scale(1,1)"><path fill="#000000" stroke="none" d="M 1177.3064438849528 245.15588573968978 L 1167 249 L 1177.00595562209 253.56955709984746 L 1188.9859827956461 249.78521367127308"/></g><g transform="translate(-126,-38) scale(1,1)"><path fill="none" stroke="#000000" d="M 1177.3064438849528 245.15588573968978 L 1167 249 L 1177.00595562209 253.56955709984746 L 1188.9859827956461 249.78521367127308 L 1177.3064438849528 245.15588573968978" stroke-miterlimit="10"/></g><g transform="translate(-126,-38) scale(1,1)"><g><path fill="none" stroke="none"/><text fill="#000000" stroke="none" font-family="Arial" font-size="13px" font-style="normal" font-weight="normal" text-decoration="none" x="1215.5" y="235">-gpioB</text></g></g></g></svg>